<?xml version="1.0" encoding="utf-8"?><svg width="204" height="102" viewBox="0 0 204 102" xmlns="http://www.w3.org/2000/svg" xmlns:xlink="http://www.w3.org/1999/xlink"><svg viewBox="-1 -1 52 52" width="102" height="102" id="tools-black"><path style="text-indent:0;text-align:start;line-height:normal;text-transform:none;block-progression:tb;-inkscape-font-specification:Bitstream Vera Sans" d="M38.5-.094c-.295.009-.607.029-.906.063-1.199.136-2.438.464-3.625.906-2.374.884-4.563 2.22-5.969 3.625-1.52 1.52-2.264 3.373-2.25 5.281.012 1.65.627 3.312 1.531 4.906L25 17a1 1 0 1 0 1.406 1.406l2.813-2.812a1 1 0 0 0 .125-1.25C28.32 12.76 27.76 11.198 27.75 9.78c-.01-1.417.476-2.695 1.656-3.875 1.095-1.094 3.156-2.365 5.282-3.156a11.714 11.714 0 0 1 3.78-.719l-3.78 3.75a1 1 0 0 0-.032.063c-1.026 1.173-1.073 2.958.032 4.062L40 15.22a1 1 0 0 0 .031.031c1.173 1.026 2.959 1.073 4.063-.031l3.781-3.781a11.62 11.62 0 0 1-.719 3.812C46.366 17.362 45.1 19.4 44 20.5c-1.18 1.18-2.435 1.615-3.844 1.594-1.408-.022-3.008-.574-4.656-1.563a1 1 0 0 0-1.219.157l-1.593 1.593a1.005 1.005 0 1 0 1.406 1.438l1.125-1.125c1.624.872 3.258 1.475 4.906 1.5 1.892.028 3.761-.668 5.281-2.188 1.401-1.4 2.74-3.574 3.625-5.937.885-2.364 1.348-4.925.625-7.094A1 1 0 0 0 48 8.5l-5.313 5.281c-.282.283-.858.322-1.28 0-.02-.015-.044-.014-.063-.031l-5.25-5.25c-.296-.296-.311-.917.062-1.344l5.25-5.25A1 1 0 0 0 41.031.25c-.8-.274-1.646-.37-2.531-.344zM3.344 0a1 1 0 0 0-.563.281l-2.5 2.5A1 1 0 0 0 .125 4l4.219 7.313a1 1 0 0 0 1 .468l2.187-.344L21.094 25l-.5.5a2.83 2.83 0 0 0 0 4l.687.719c.795.795 1.894.795 2.875.468l1.688 1.657c-.112 1.346.28 2.687 1.25 3.656L39.28 48.219a6.315 6.315 0 0 0 8.938 0 1 1 0 0 0 0-.032c2.372-2.49 2.4-6.505 0-8.906L36 27.094c-1.009-1.009-2.349-1.321-3.656-1.25l-1.657-1.688c.327-.981.327-2.08-.468-2.875l-.719-.687a2.83 2.83 0 0 0-2-.844 2.83 2.83 0 0 0-2 .844l-.5.5L11.437 7.53l.344-2.187a1 1 0 0 0-.469-1L4 .125A1 1 0 0 0 3.437 0a1 1 0 0 0-.093 0zm.344 2.25l6.03 3.469-.312 2.031a1 1 0 0 0 .281.844L23.595 22.5 22.5 23.594 8.594 9.687a1 1 0 0 0-.844-.28l-2.031.312L2.25 3.688 3.688 2.25zM27.5 21.781c.223 0 .446.071.594.219l.687.719c.33.33.326.818.063 1.125a1 1 0 0 0 .062 1.375l2.282 2.281a1 1 0 0 0 .875.281c.924-.154 1.893.08 2.53.719l12.188 12.219c1.593 1.593 1.61 4.35 0 6.062-1.73 1.73-4.333 1.73-6.062 0L28.5 34.594c-.664-.665-.927-1.606-.719-2.438a1 1 0 0 0-.281-.968l-2.281-2.282a1 1 0 0 0-1.375-.062.827.827 0 0 1-1.125-.063L22 28.094c-.296-.296-.296-.892 0-1.188L26.906 22c.148-.148.371-.219.594-.219zm-9.813 3a1 1 0 0 0-.593.313l-4.75 4.75c-.68-.131-1.349-.25-2.031-.25-5.636 0-10.22 4.583-10.22 10.218C.094 45.449 4.678 50 10.314 50A10.175 10.175 0 0 0 20.5 39.812c0-.73-.164-1.45-.344-2.156l3.438-3.437a1.005 1.005 0 1 0-1.407-1.438l-3.78 3.813a1 1 0 0 0-.25 1.062c.248.663.343 1.33.343 2.157A8.134 8.134 0 0 1 10.312 48c-4.564 0-8.218-3.623-8.218-8.188a8.187 8.187 0 0 1 8.219-8.218c.716 0 1.432.1 2.156.281a1 1 0 0 0 .937-.281L18.5 26.5a1 1 0 0 0-.719-1.719 1 1 0 0 0-.093 0zm14.032 5.5L30.28 31.72l12 12 1.438-1.438-12-12zM11.375 34a1 1 0 0 0-.156.031L6.53 35.344a1 1 0 0 0-.687.687L4.53 40.72a1 1 0 0 0 .25 1l3.5 3.5a1 1 0 0 0 .969.25l4.813-1.313a1 1 0 0 0 .718-.718l1.188-4.688a1 1 0 0 0-.25-.969l-3.5-3.5a1 1 0 0 0-.844-.281zm-.188 2.125l2.688 2.688-.906 3.593-3.656.969-2.688-2.688.969-3.593 3.593-.969z" color="#000" overflow="visible" font-family="Bitstream Vera Sans"/></svg><svg viewBox="-1 -1 52 52" width="102" height="102" fill="#4e4454" id="tools-purple" x="102"><path style="text-indent:0;text-align:start;line-height:normal;text-transform:none;block-progression:tb;-inkscape-font-specification:Bitstream Vera Sans" d="M38.5-.094c-.295.009-.607.029-.906.063-1.199.136-2.438.464-3.625.906-2.374.884-4.563 2.22-5.969 3.625-1.52 1.52-2.264 3.373-2.25 5.281.012 1.65.627 3.312 1.531 4.906L25 17a1 1 0 1 0 1.406 1.406l2.813-2.812a1 1 0 0 0 .125-1.25C28.32 12.76 27.76 11.198 27.75 9.78c-.01-1.417.476-2.695 1.656-3.875 1.095-1.094 3.156-2.365 5.282-3.156a11.714 11.714 0 0 1 3.78-.719l-3.78 3.75a1 1 0 0 0-.032.063c-1.026 1.173-1.073 2.958.032 4.062L40 15.22a1 1 0 0 0 .031.031c1.173 1.026 2.959 1.073 4.063-.031l3.781-3.781a11.62 11.62 0 0 1-.719 3.812C46.366 17.362 45.1 19.4 44 20.5c-1.18 1.18-2.435 1.615-3.844 1.594-1.408-.022-3.008-.574-4.656-1.563a1 1 0 0 0-1.219.157l-1.593 1.593a1.005 1.005 0 1 0 1.406 1.438l1.125-1.125c1.624.872 3.258 1.475 4.906 1.5 1.892.028 3.761-.668 5.281-2.188 1.401-1.4 2.74-3.574 3.625-5.937.885-2.364 1.348-4.925.625-7.094A1 1 0 0 0 48 8.5l-5.313 5.281c-.282.283-.858.322-1.28 0-.02-.015-.044-.014-.063-.031l-5.25-5.25c-.296-.296-.311-.917.062-1.344l5.25-5.25A1 1 0 0 0 41.031.25c-.8-.274-1.646-.37-2.531-.344zM3.344 0a1 1 0 0 0-.563.281l-2.5 2.5A1 1 0 0 0 .125 4l4.219 7.313a1 1 0 0 0 1 .468l2.187-.344L21.094 25l-.5.5a2.83 2.83 0 0 0 0 4l.687.719c.795.795 1.894.795 2.875.468l1.688 1.657c-.112 1.346.28 2.687 1.25 3.656L39.28 48.219a6.315 6.315 0 0 0 8.938 0 1 1 0 0 0 0-.032c2.372-2.49 2.4-6.505 0-8.906L36 27.094c-1.009-1.009-2.349-1.321-3.656-1.25l-1.657-1.688c.327-.981.327-2.08-.468-2.875l-.719-.687a2.83 2.83 0 0 0-2-.844 2.83 2.83 0 0 0-2 .844l-.5.5L11.437 7.53l.344-2.187a1 1 0 0 0-.469-1L4 .125A1 1 0 0 0 3.437 0a1 1 0 0 0-.093 0zm.344 2.25l6.03 3.469-.312 2.031a1 1 0 0 0 .281.844L23.595 22.5 22.5 23.594 8.594 9.687a1 1 0 0 0-.844-.28l-2.031.312L2.25 3.688 3.688 2.25zM27.5 21.781c.223 0 .446.071.594.219l.687.719c.33.33.326.818.063 1.125a1 1 0 0 0 .062 1.375l2.282 2.281a1 1 0 0 0 .875.281c.924-.154 1.893.08 2.53.719l12.188 12.219c1.593 1.593 1.61 4.35 0 6.062-1.73 1.73-4.333 1.73-6.062 0L28.5 34.594c-.664-.665-.927-1.606-.719-2.438a1 1 0 0 0-.281-.968l-2.281-2.282a1 1 0 0 0-1.375-.062.827.827 0 0 1-1.125-.063L22 28.094c-.296-.296-.296-.892 0-1.188L26.906 22c.148-.148.371-.219.594-.219zm-9.813 3a1 1 0 0 0-.593.313l-4.75 4.75c-.68-.131-1.349-.25-2.031-.25-5.636 0-10.22 4.583-10.22 10.218C.094 45.449 4.678 50 10.314 50A10.175 10.175 0 0 0 20.5 39.812c0-.73-.164-1.45-.344-2.156l3.438-3.437a1.005 1.005 0 1 0-1.407-1.438l-3.78 3.813a1 1 0 0 0-.25 1.062c.248.663.343 1.33.343 2.157A8.134 8.134 0 0 1 10.312 48c-4.564 0-8.218-3.623-8.218-8.188a8.187 8.187 0 0 1 8.219-8.218c.716 0 1.432.1 2.156.281a1 1 0 0 0 .937-.281L18.5 26.5a1 1 0 0 0-.719-1.719 1 1 0 0 0-.093 0zm14.032 5.5L30.28 31.72l12 12 1.438-1.438-12-12zM11.375 34a1 1 0 0 0-.156.031L6.53 35.344a1 1 0 0 0-.687.687L4.53 40.72a1 1 0 0 0 .25 1l3.5 3.5a1 1 0 0 0 .969.25l4.813-1.313a1 1 0 0 0 .718-.718l1.188-4.688a1 1 0 0 0-.25-.969l-3.5-3.5a1 1 0 0 0-.844-.281zm-.188 2.125l2.688 2.688-.906 3.593-3.656.969-2.688-2.688.969-3.593 3.593-.969z" color="#000" overflow="visible" font-family="Bitstream Vera Sans"/></svg></svg>